<svg width="14" height="14" viewBox="0 0 14 14" fill="none" xmlns="http://www.w3.org/2000/svg">
<path d="M1.98206 2.20209C1.98206 2.20209 2.3124 1.87174 2.97308 1.21106C3.63377 0.550372 4.90274 0.220029 6.78 0.220029C8.65726 0.220029 10.2566 0.880714 11.5779 2.20209C12.8993 3.52346 13.56 5.12277 13.56 7.00003C13.56 8.87729 12.8993 10.4766 11.5779 11.798C10.2566 13.1193 8.65726 13.78 6.78 13.78C4.90274 13.78 3.30343 13.1193 1.98206 11.798C0.660686 10.4766 0 8.87729 0 7.00003C0 5.12277 0.660686 3.52346 1.98206 2.20209ZM12.0564 4.37551C11.3273 2.89922 10.1882 1.90592 8.63903 1.39559C9.16758 2.14285 9.55944 3.13616 9.8146 4.37551H12.0564ZM9.07645 8.74971C9.14935 8.16648 9.18581 7.58326 9.18581 7.00003C9.18581 6.4168 9.14935 5.83358 9.07645 5.25035H4.48355C4.41065 5.83358 4.37419 6.4168 4.37419 7.00003C4.37419 7.58326 4.41065 8.16648 4.48355 8.74971H9.07645ZM6.78 1.09487C6.39726 1.09487 6.00085 1.39104 5.59077 1.98338C5.18069 2.57572 4.86629 3.37309 4.64758 4.37551H8.91242C8.80306 3.86519 8.66181 3.40043 8.48867 2.98124C8.31552 2.56205 8.13327 2.21576 7.9419 1.94237C7.75052 1.66898 7.5546 1.45938 7.35411 1.31358C7.15363 1.16777 6.96226 1.09487 6.78 1.09487ZM4.92097 1.39559C3.37177 1.90592 2.23266 2.89922 1.50363 4.37551H3.7454C4.00056 3.15438 4.39242 2.16108 4.92097 1.39559ZM1.14823 5.25035C0.965968 5.81535 0.874839 6.39858 0.874839 7.00003C0.874839 7.60148 0.965968 8.18471 1.14823 8.74971H3.60871C3.53581 8.16648 3.49935 7.58326 3.49935 7.00003C3.49935 6.43503 3.53581 5.8518 3.60871 5.25035H1.14823ZM1.50363 9.62455C2.23266 11.1008 3.37177 12.0941 4.92097 12.6045C4.39242 11.8572 4.00056 10.8639 3.7454 9.62455H1.50363ZM6.78 12.9052C7.16274 12.9052 7.55915 12.609 7.96923 12.0167C8.37931 11.4243 8.69371 10.627 8.91242 9.62455H4.64758C4.79339 10.2989 4.98931 10.8867 5.23536 11.3879C5.48141 11.8891 5.73657 12.2673 6.00085 12.5224C6.26512 12.7776 6.52484 12.9052 6.78 12.9052ZM8.63903 12.6045C10.1882 12.0941 11.3273 11.1008 12.0564 9.62455H9.8146C9.55944 10.8457 9.16758 11.839 8.63903 12.6045ZM9.95129 8.74971H12.4118C12.594 8.18471 12.6852 7.60148 12.6852 7.00003C12.6852 6.39858 12.594 5.81535 12.4118 5.25035H9.95129C10.0242 5.83358 10.0606 6.4168 10.0606 7.00003C10.0606 7.56503 10.0242 8.14825 9.95129 8.74971Z" fill="#0AC70A"/>
</svg>
