<svg width="23" height="24" viewBox="0 0 23 24" fill="none" xmlns="http://www.w3.org/2000/svg">
<rect width="22.75" height="24" rx="11.375" fill="#1DA678"/>
<g clip-path="url(#clip0_156_1525)">
<path d="M15.75 16.6094V17H7V16.6094C7 16.4531 7.07812 16.375 7.23438 16.375H7.625V9.34375C7.625 9.21354 7.67057 9.10286 7.76172 9.01172C7.85286 8.92057 7.96354 8.875 8.09375 8.875H9.8125V7.46875C9.8125 7.33854 9.85807 7.22786 9.94922 7.13672C10.0404 7.04557 10.151 7 10.2812 7H12.4688C12.599 7 12.7096 7.04557 12.8008 7.13672C12.8919 7.22786 12.9375 7.33854 12.9375 7.46875V8.875H14.6562C14.7865 8.875 14.8971 8.92057 14.9883 9.01172C15.0794 9.10286 15.125 9.21354 15.125 9.34375V16.375H15.5156C15.6719 16.375 15.75 16.4531 15.75 16.6094ZM13.0156 10.75H12.2344C12.0781 10.75 12 10.8281 12 10.9844V11.7656C12 11.9219 12.0781 12 12.2344 12H13.0156C13.1719 12 13.25 11.9219 13.25 11.7656V10.9844C13.25 10.8281 13.1719 10.75 13.0156 10.75ZM9.73438 12H10.5156C10.6719 12 10.75 11.9219 10.75 11.7656V10.9844C10.75 10.8281 10.6719 10.75 10.5156 10.75H9.73438C9.57812 10.75 9.5 10.8281 9.5 10.9844V11.7656C9.5 11.9219 9.57812 12 9.73438 12ZM11.7656 14.5H10.9844C10.8281 14.5 10.75 14.5781 10.75 14.7344V16.375H12V14.7344C12 14.5781 11.9219 14.5 11.7656 14.5ZM13.0156 12.625H12.2344C12.0781 12.625 12 12.7031 12 12.8594V13.6406C12 13.7969 12.0781 13.875 12.2344 13.875H13.0156C13.1719 13.875 13.25 13.7969 13.25 13.6406V12.8594C13.25 12.7031 13.1719 12.625 13.0156 12.625ZM10.75 12.8594C10.75 12.7031 10.6719 12.625 10.5156 12.625H9.73438C9.57812 12.625 9.5 12.7031 9.5 12.8594V13.6406C9.5 13.7969 9.57812 13.875 9.73438 13.875H10.5156C10.6719 13.875 10.75 13.7969 10.75 13.6406V12.8594ZM10.5547 8.875H11.0625V9.38281C11.0625 9.46094 11.1016 9.5 11.1797 9.5H11.5703C11.6484 9.5 11.6875 9.46094 11.6875 9.38281V8.875H12.1953C12.2734 8.875 12.3125 8.83594 12.3125 8.75781V8.36719C12.3125 8.28906 12.2734 8.25 12.1953 8.25H11.6875V7.74219C11.6875 7.66406 11.6484 7.625 11.5703 7.625H11.1797C11.1016 7.625 11.0625 7.66406 11.0625 7.74219V8.25H10.5547C10.4766 8.25 10.4375 8.28906 10.4375 8.36719V8.75781C10.4375 8.83594 10.4766 8.875 10.5547 8.875Z" fill="white"/>
</g>
<defs>
<clipPath id="clip0_156_1525">
<rect width="8.75" height="10" fill="white" transform="matrix(1 0 0 -1 7 17)"/>
</clipPath>
</defs>
</svg>
