<svg width="12" height="8" viewBox="0 0 12 8" fill="none" xmlns="http://www.w3.org/2000/svg">
<path d="M6.5625 0.25C6.82292 0.25 7.04427 0.341146 7.22656 0.523438C7.40885 0.705729 7.5 0.927083 7.5 1.1875V6.8125C7.5 7.07292 7.40885 7.29427 7.22656 7.47656C7.04427 7.65885 6.82292 7.75 6.5625 7.75H0.9375C0.677083 7.75 0.455729 7.65885 0.273438 7.47656C0.0911458 7.29427 0 7.07292 0 6.8125V1.1875C0 0.927083 0.0911458 0.705729 0.273438 0.523438C0.455729 0.341146 0.677083 0.25 0.9375 0.25H6.5625ZM10.2734 0.992188C10.4818 0.848958 10.6966 0.832682 10.918 0.943359C11.1393 1.05404 11.25 1.23958 11.25 1.5V6.5C11.25 6.76042 11.1361 6.94596 10.9082 7.05664C10.6803 7.16732 10.4688 7.15104 10.2734 7.00781L8.125 5.54297V2.45703L10.2734 0.992188Z" fill="white"/>
</svg>
