<svg width="26" height="24" viewBox="0 0 26 24" fill="none" xmlns="http://www.w3.org/2000/svg">
<rect width="25.25" height="24" rx="12" fill="#EA3A82"/>
<g clip-path="url(#clip0_156_1594)">
<path d="M13.5625 8.25C13.8229 8.25 14.0443 8.34115 14.2266 8.52344C14.4089 8.70573 14.5 8.92708 14.5 9.1875V14.8125C14.5 15.0729 14.4089 15.2943 14.2266 15.4766C14.0443 15.6589 13.8229 15.75 13.5625 15.75H7.9375C7.67708 15.75 7.45573 15.6589 7.27344 15.4766C7.09115 15.2943 7 15.0729 7 14.8125V9.1875C7 8.92708 7.09115 8.70573 7.27344 8.52344C7.45573 8.34115 7.67708 8.25 7.9375 8.25H13.5625ZM17.2734 8.99219C17.4818 8.84896 17.6966 8.83268 17.918 8.94336C18.1393 9.05404 18.25 9.23958 18.25 9.5V14.5C18.25 14.7604 18.1361 14.946 17.9082 15.0566C17.6803 15.1673 17.4688 15.151 17.2734 15.0078L15.125 13.543V10.457L17.2734 8.99219Z" fill="white"/>
</g>
<defs>
<clipPath id="clip0_156_1594">
<rect width="11.25" height="10" fill="white" transform="matrix(1 0 0 -1 7 17)"/>
</clipPath>
</defs>
</svg>
