<svg width="16" height="15" viewBox="0 0 16 15" fill="none" xmlns="http://www.w3.org/2000/svg">
<path d="M14.7969 0.913818H12.7969V0.523193C12.7969 0.40861 12.7578 0.312256 12.6797 0.234131C12.6016 0.156006 12.5104 0.116943 12.4062 0.116943C12.2917 0.116943 12.1953 0.156006 12.1172 0.234131C12.0391 0.312256 12 0.40861 12 0.523193V0.913818H4V0.523193C4 0.40861 3.96094 0.312256 3.88281 0.234131C3.80469 0.156006 3.70833 0.116943 3.59375 0.116943C3.48958 0.116943 3.39844 0.156006 3.32031 0.234131C3.24219 0.312256 3.20312 0.40861 3.20312 0.523193V0.913818H1.20312C0.869792 0.913818 0.585938 1.03101 0.351562 1.26538C0.117188 1.49976 0 1.78361 0 2.11694V13.3201C0 13.6534 0.117188 13.9373 0.351562 14.1716C0.585938 14.406 0.869792 14.5232 1.20312 14.5232H14.7969C15.1302 14.5232 15.4141 14.406 15.6484 14.1716C15.8828 13.9373 16 13.6534 16 13.3201V2.11694C16 1.78361 15.8828 1.49976 15.6484 1.26538C15.4141 1.03101 15.1302 0.913818 14.7969 0.913818ZM1.20312 1.72632H3.20312V2.91382C3.20312 3.0284 3.24219 3.12476 3.32031 3.20288C3.39844 3.28101 3.48958 3.32007 3.59375 3.32007C3.70833 3.32007 3.80469 3.28101 3.88281 3.20288C3.96094 3.12476 4 3.0284 4 2.91382V1.72632H12V2.91382C12 3.0284 12.0391 3.12476 12.1172 3.20288C12.1953 3.28101 12.2917 3.32007 12.4062 3.32007C12.5104 3.32007 12.6016 3.28101 12.6797 3.20288C12.7578 3.12476 12.7969 3.0284 12.7969 2.91382V1.72632H14.7969C14.9115 1.72632 15.0078 1.76538 15.0859 1.84351C15.1641 1.92163 15.2031 2.01278 15.2031 2.11694V4.11694H0.796875V2.11694C0.796875 2.01278 0.835938 1.92163 0.914062 1.84351C0.992188 1.76538 1.08854 1.72632 1.20312 1.72632ZM14.7969 13.7263H1.20312C1.08854 13.7263 0.992188 13.6873 0.914062 13.6091C0.835938 13.531 0.796875 13.4347 0.796875 13.3201V4.91382H15.2031V13.3201C15.2031 13.4347 15.1641 13.531 15.0859 13.6091C15.0078 13.6873 14.9115 13.7263 14.7969 13.7263ZM6 7.32007H5.20312C5.08854 7.32007 4.99219 7.28101 4.91406 7.20288C4.83594 7.12476 4.79688 7.0284 4.79688 6.91382C4.79688 6.80965 4.83594 6.71851 4.91406 6.64038C4.99219 6.56226 5.08854 6.52319 5.20312 6.52319H6C6.11458 6.52319 6.21094 6.56226 6.28906 6.64038C6.36719 6.71851 6.40625 6.80965 6.40625 6.91382C6.40625 7.0284 6.36719 7.12476 6.28906 7.20288C6.21094 7.28101 6.11458 7.32007 6 7.32007ZM8.40625 7.32007H7.59375C7.48958 7.32007 7.39844 7.28101 7.32031 7.20288C7.24219 7.12476 7.20312 7.0284 7.20312 6.91382C7.20312 6.80965 7.24219 6.71851 7.32031 6.64038C7.39844 6.56226 7.48958 6.52319 7.59375 6.52319H8.40625C8.51042 6.52319 8.60156 6.56226 8.67969 6.64038C8.75781 6.71851 8.79688 6.80965 8.79688 6.91382C8.79688 7.0284 8.75781 7.12476 8.67969 7.20288C8.60156 7.28101 8.51042 7.32007 8.40625 7.32007ZM10.7969 7.32007H10C9.88542 7.32007 9.78906 7.28101 9.71094 7.20288C9.63281 7.12476 9.59375 7.0284 9.59375 6.91382C9.59375 6.80965 9.63281 6.71851 9.71094 6.64038C9.78906 6.56226 9.88542 6.52319 10 6.52319H10.7969C10.9115 6.52319 11.0078 6.56226 11.0859 6.64038C11.1641 6.71851 11.2031 6.80965 11.2031 6.91382C11.2031 7.0284 11.1641 7.12476 11.0859 7.20288C11.0078 7.28101 10.9115 7.32007 10.7969 7.32007ZM13.2031 7.32007H12.4062C12.2917 7.32007 12.1953 7.28101 12.1172 7.20288C12.0391 7.12476 12 7.0284 12 6.91382C12 6.80965 12.0391 6.71851 12.1172 6.64038C12.1953 6.56226 12.2917 6.52319 12.4062 6.52319H13.2031C13.3073 6.52319 13.3984 6.56226 13.4766 6.64038C13.5547 6.71851 13.5938 6.80965 13.5938 6.91382C13.5938 7.0284 13.5547 7.12476 13.4766 7.20288C13.3984 7.28101 13.3073 7.32007 13.2031 7.32007ZM3.59375 8.91382H2.79688C2.69271 8.91382 2.60156 8.87476 2.52344 8.79663C2.44531 8.71851 2.40625 8.62736 2.40625 8.52319C2.40625 8.40861 2.44531 8.31226 2.52344 8.23413C2.60156 8.15601 2.69271 8.11694 2.79688 8.11694H3.59375C3.70833 8.11694 3.80469 8.15601 3.88281 8.23413C3.96094 8.31226 4 8.40861 4 8.52319C4 8.62736 3.96094 8.71851 3.88281 8.79663C3.80469 8.87476 3.70833 8.91382 3.59375 8.91382ZM6 8.91382H5.20312C5.08854 8.91382 4.99219 8.87476 4.91406 8.79663C4.83594 8.71851 4.79688 8.62736 4.79688 8.52319C4.79688 8.40861 4.83594 8.31226 4.91406 8.23413C4.99219 8.15601 5.08854 8.11694 5.20312 8.11694H6C6.11458 8.11694 6.21094 8.15601 6.28906 8.23413C6.36719 8.31226 6.40625 8.40861 6.40625 8.52319C6.40625 8.62736 6.36719 8.71851 6.28906 8.79663C6.21094 8.87476 6.11458 8.91382 6 8.91382ZM8.40625 8.91382H7.59375C7.48958 8.91382 7.39844 8.87476 7.32031 8.79663C7.24219 8.71851 7.20312 8.62736 7.20312 8.52319C7.20312 8.40861 7.24219 8.31226 7.32031 8.23413C7.39844 8.15601 7.48958 8.11694 7.59375 8.11694H8.40625C8.51042 8.11694 8.60156 8.15601 8.67969 8.23413C8.75781 8.31226 8.79688 8.40861 8.79688 8.52319C8.79688 8.62736 8.75781 8.71851 8.67969 8.79663C8.60156 8.87476 8.51042 8.91382 8.40625 8.91382ZM10.7969 8.91382H10C9.88542 8.91382 9.78906 8.87476 9.71094 8.79663C9.63281 8.71851 9.59375 8.62736 9.59375 8.52319C9.59375 8.40861 9.63281 8.31226 9.71094 8.23413C9.78906 8.15601 9.88542 8.11694 10 8.11694H10.7969C10.9115 8.11694 11.0078 8.15601 11.0859 8.23413C11.1641 8.31226 11.2031 8.40861 11.2031 8.52319C11.2031 8.62736 11.1641 8.71851 11.0859 8.79663C11.0078 8.87476 10.9115 8.91382 10.7969 8.91382ZM13.2031 8.91382H12.4062C12.2917 8.91382 12.1953 8.87476 12.1172 8.79663C12.0391 8.71851 12 8.62736 12 8.52319C12 8.40861 12.0391 8.31226 12.1172 8.23413C12.1953 8.15601 12.2917 8.11694 12.4062 8.11694H13.2031C13.3073 8.11694 13.3984 8.15601 13.4766 8.23413C13.5547 8.31226 13.5938 8.40861 13.5938 8.52319C13.5938 8.62736 13.5547 8.71851 13.4766 8.79663C13.3984 8.87476 13.3073 8.91382 13.2031 8.91382ZM3.59375 10.5232H2.79688C2.69271 10.5232 2.60156 10.4841 2.52344 10.406C2.44531 10.3279 2.40625 10.2315 2.40625 10.1169C2.40625 10.0128 2.44531 9.92163 2.52344 9.84351C2.60156 9.76538 2.69271 9.72632 2.79688 9.72632H3.59375C3.70833 9.72632 3.80469 9.76538 3.88281 9.84351C3.96094 9.92163 4 10.0128 4 10.1169C4 10.2315 3.96094 10.3279 3.88281 10.406C3.80469 10.4841 3.70833 10.5232 3.59375 10.5232ZM6 10.5232H5.20312C5.08854 10.5232 4.99219 10.4841 4.91406 10.406C4.83594 10.3279 4.79688 10.2315 4.79688 10.1169C4.79688 10.0128 4.83594 9.92163 4.91406 9.84351C4.99219 9.76538 5.08854 9.72632 5.20312 9.72632H6C6.11458 9.72632 6.21094 9.76538 6.28906 9.84351C6.36719 9.92163 6.40625 10.0128 6.40625 10.1169C6.40625 10.2315 6.36719 10.3279 6.28906 10.406C6.21094 10.4841 6.11458 10.5232 6 10.5232ZM8.40625 10.5232H7.59375C7.48958 10.5232 7.39844 10.4841 7.32031 10.406C7.24219 10.3279 7.20312 10.2315 7.20312 10.1169C7.20312 10.0128 7.24219 9.92163 7.32031 9.84351C7.39844 9.76538 7.48958 9.72632 7.59375 9.72632H8.40625C8.51042 9.72632 8.60156 9.76538 8.67969 9.84351C8.75781 9.92163 8.79688 10.0128 8.79688 10.1169C8.79688 10.2315 8.75781 10.3279 8.67969 10.406C8.60156 10.4841 8.51042 10.5232 8.40625 10.5232ZM10.7969 10.5232H10C9.88542 10.5232 9.78906 10.4841 9.71094 10.406C9.63281 10.3279 9.59375 10.2315 9.59375 10.1169C9.59375 10.0128 9.63281 9.92163 9.71094 9.84351C9.78906 9.76538 9.88542 9.72632 10 9.72632H10.7969C10.9115 9.72632 11.0078 9.76538 11.0859 9.84351C11.1641 9.92163 11.2031 10.0128 11.2031 10.1169C11.2031 10.2315 11.1641 10.3279 11.0859 10.406C11.0078 10.4841 10.9115 10.5232 10.7969 10.5232ZM13.2031 10.5232H12.4062C12.2917 10.5232 12.1953 10.4841 12.1172 10.406C12.0391 10.3279 12 10.2315 12 10.1169C12 10.0128 12.0391 9.92163 12.1172 9.84351C12.1953 9.76538 12.2917 9.72632 12.4062 9.72632H13.2031C13.3073 9.72632 13.3984 9.76538 13.4766 9.84351C13.5547 9.92163 13.5938 10.0128 13.5938 10.1169C13.5938 10.2315 13.5547 10.3279 13.4766 10.406C13.3984 10.4841 13.3073 10.5232 13.2031 10.5232ZM3.59375 12.1169H2.79688C2.69271 12.1169 2.60156 12.0779 2.52344 11.9998C2.44531 11.9216 2.40625 11.8305 2.40625 11.7263C2.40625 11.6117 2.44531 11.5154 2.52344 11.4373C2.60156 11.3591 2.69271 11.3201 2.79688 11.3201H3.59375C3.70833 11.3201 3.80469 11.3591 3.88281 11.4373C3.96094 11.5154 4 11.6117 4 11.7263C4 11.8305 3.96094 11.9216 3.88281 11.9998C3.80469 12.0779 3.70833 12.1169 3.59375 12.1169ZM6 12.1169H5.20312C5.08854 12.1169 4.99219 12.0779 4.91406 11.9998C4.83594 11.9216 4.79688 11.8305 4.79688 11.7263C4.79688 11.6117 4.83594 11.5154 4.91406 11.4373C4.99219 11.3591 5.08854 11.3201 5.20312 11.3201H6C6.11458 11.3201 6.21094 11.3591 6.28906 11.4373C6.36719 11.5154 6.40625 11.6117 6.40625 11.7263C6.40625 11.8305 6.36719 11.9216 6.28906 11.9998C6.21094 12.0779 6.11458 12.1169 6 12.1169ZM8.40625 12.1169H7.59375C7.48958 12.1169 7.39844 12.0779 7.32031 11.9998C7.24219 11.9216 7.20312 11.8305 7.20312 11.7263C7.20312 11.6117 7.24219 11.5154 7.32031 11.4373C7.39844 11.3591 7.48958 11.3201 7.59375 11.3201H8.40625C8.51042 11.3201 8.60156 11.3591 8.67969 11.4373C8.75781 11.5154 8.79688 11.6117 8.79688 11.7263C8.79688 11.8305 8.75781 11.9216 8.67969 11.9998C8.60156 12.0779 8.51042 12.1169 8.40625 12.1169ZM10.7969 12.1169H10C9.88542 12.1169 9.78906 12.0779 9.71094 11.9998C9.63281 11.9216 9.59375 11.8305 9.59375 11.7263C9.59375 11.6117 9.63281 11.5154 9.71094 11.4373C9.78906 11.3591 9.88542 11.3201 10 11.3201H10.7969C10.9115 11.3201 11.0078 11.3591 11.0859 11.4373C11.1641 11.5154 11.2031 11.6117 11.2031 11.7263C11.2031 11.8305 11.1641 11.9216 11.0859 11.9998C11.0078 12.0779 10.9115 12.1169 10.7969 12.1169ZM13.2031 12.1169H12.4062C12.2917 12.1169 12.1953 12.0779 12.1172 11.9998C12.0391 11.9216 12 11.8305 12 11.7263C12 11.6117 12.0391 11.5154 12.1172 11.4373C12.1953 11.3591 12.2917 11.3201 12.4062 11.3201H13.2031C13.3073 11.3201 13.3984 11.3591 13.4766 11.4373C13.5547 11.5154 13.5938 11.6117 13.5938 11.7263C13.5938 11.8305 13.5547 11.9216 13.4766 11.9998C13.3984 12.0779 13.3073 12.1169 13.2031 12.1169Z" fill="#1DA678"/>
</svg>
