<svg width="16" height="16" viewBox="0 0 16 16" fill="none" xmlns="http://www.w3.org/2000/svg">
<path d="M15.4375 15.1531C15.4375 15.1531 15.4375 14.7729 15.4375 14.0125C15.4375 13.252 15.4375 12.3562 15.4375 11.325C15.4375 10.2937 15.4375 9.25203 15.4375 8.19995C15.4375 7.14787 15.4375 6.33016 15.4375 5.74683C15.4375 5.69474 15.4141 5.64006 15.3672 5.58276C15.3203 5.52547 15.2656 5.47599 15.2031 5.43433L12.75 3.65308V1.68433C12.75 1.58016 12.7161 1.49943 12.6484 1.44214C12.5807 1.38485 12.5052 1.3562 12.4219 1.3562H9.60938L8.1875 0.309326C8.13542 0.278076 8.07552 0.262451 8.00781 0.262451C7.9401 0.262451 7.88021 0.278076 7.82812 0.309326L6.40625 1.3562H3.59375C3.5 1.3562 3.42188 1.39006 3.35938 1.45776C3.29688 1.52547 3.26562 1.60099 3.26562 1.68433V3.62183L0.78125 5.43433C0.708333 5.48641 0.651042 5.53849 0.609375 5.59058C0.567708 5.64266 0.546875 5.69474 0.546875 5.74683C0.546875 6.34058 0.546875 7.1687 0.546875 8.2312C0.546875 9.28328 0.546875 10.3276 0.546875 11.364C0.546875 12.4005 0.546875 13.3041 0.546875 14.075C0.546875 14.8354 0.546875 15.2156 0.546875 15.2156C0.546875 15.3093 0.575521 15.3848 0.632812 15.4421C0.690104 15.4994 0.760417 15.5333 0.84375 15.5437C0.84375 15.5437 0.846354 15.5437 0.851562 15.5437C0.856771 15.5437 0.859375 15.5437 0.859375 15.5437H15.1094C15.2135 15.5437 15.2943 15.5072 15.3516 15.4343C15.4089 15.3614 15.4375 15.2677 15.4375 15.1531ZM14.8281 6.32495V14.5593L9.45312 10.2625L14.8281 6.32495ZM14.5781 5.76245L12.75 7.09058V4.40308L14.5781 5.76245ZM8 0.934326L8.5625 1.3562H7.42188L8 0.934326ZM12.0938 1.99683V7.57495L8 10.5593L3.89062 7.57495V1.99683H12.0938ZM1.15625 6.32495L6.54688 10.2625L1.15625 14.5906V6.32495ZM3.28125 7.12183L1.39062 5.74683L3.28125 4.37183V7.12183ZM1.75 14.9187L7.0625 10.6375L7.79688 11.1843C7.86979 11.2364 7.9349 11.2625 7.99219 11.2625C8.04948 11.2625 8.11458 11.2364 8.1875 11.1843L8.92188 10.6375L14.2656 14.9187H1.75ZM5.8125 3.59058H10.2031V4.21558H5.8125V3.59058ZM5.8125 5.57495H10.2031V6.19995H5.8125V5.57495ZM5.8125 7.55933H10.2031V8.18433H5.8125V7.55933Z" fill="#1DA678"/>
</svg>
