<svg width="16" height="13" viewBox="0 0 16 13" fill="none" xmlns="http://www.w3.org/2000/svg">
<path d="M8.45302 7.95935C8.29186 7.72768 8.09041 7.54638 7.84867 7.41544C7.60694 7.28449 7.34505 7.21399 7.06303 7.20392H7.03281C6.68028 7.20392 6.37559 7.08808 6.11874 6.85642C5.86189 6.62475 5.71333 6.33769 5.67304 5.99523C5.77376 5.92472 5.87197 5.84162 5.96765 5.74594C6.06334 5.65025 6.15147 5.54701 6.23205 5.43621C6.39321 5.21462 6.52919 4.96533 6.63999 4.68833C6.75078 4.41134 6.82633 4.12176 6.86662 3.81959C6.87669 3.80952 6.88676 3.79693 6.89683 3.78182C6.9069 3.76671 6.91698 3.74908 6.92705 3.72894C6.99756 3.55771 7.05044 3.38396 7.08569 3.20769C7.12094 3.03143 7.13857 2.8476 7.13857 2.65623C7.13857 1.95116 6.90187 1.3443 6.42847 0.835644C5.95506 0.326988 5.38597 0.0726595 4.7212 0.0726595C4.54996 0.0726595 4.38125 0.0928049 4.21506 0.133094C4.04886 0.173384 3.89022 0.228782 3.73914 0.299289C3.6787 0.309361 3.62079 0.319433 3.56539 0.329506C3.50999 0.339579 3.45207 0.354687 3.39164 0.374831C2.83766 0.525918 2.42469 0.89356 2.15273 1.47776C1.88078 2.06196 1.83042 2.68645 2.00165 3.35122C2.01172 3.42173 2.02935 3.48972 2.05453 3.55519C2.07971 3.62066 2.10237 3.68361 2.12252 3.74405C2.13259 3.76419 2.14266 3.78182 2.15273 3.79693C2.16281 3.81204 2.17288 3.82463 2.18295 3.8347C2.24339 4.3081 2.37936 4.73114 2.59088 5.10382C2.8024 5.4765 3.05925 5.77364 3.36142 5.99523C3.32113 6.33769 3.17256 6.62475 2.91572 6.85642C2.65887 7.08808 2.35418 7.20392 2.00165 7.20392H1.98654H1.97143C1.49803 7.22406 1.09513 7.40536 0.762744 7.74783C0.430355 8.09029 0.26416 8.49822 0.26416 8.97162V10.8904C0.26416 10.971 0.294377 11.044 0.354812 11.1095C0.415246 11.175 0.490789 11.2077 0.581441 11.2077H6.27738C6.36803 11.2077 6.44609 11.175 6.51156 11.1095C6.57703 11.044 6.60977 10.971 6.60977 10.8904C6.60977 10.7998 6.57703 10.7217 6.51156 10.6562C6.44609 10.5908 6.36803 10.558 6.27738 10.558H0.91383V8.97162C0.91383 8.65938 1.02211 8.39498 1.23866 8.17842C1.45522 7.96186 1.71962 7.85359 2.03187 7.85359H2.04697H2.06208C2.18295 7.84351 2.29878 7.8284 2.40958 7.80826C2.52038 7.78811 2.62614 7.7579 2.72686 7.71761L4.25283 9.90835C4.28305 9.95872 4.32082 9.99649 4.36614 10.0217C4.41147 10.0468 4.46435 10.0594 4.52478 10.0594C4.57515 10.0594 4.62299 10.0468 4.66831 10.0217C4.71364 9.99649 4.75141 9.95872 4.78163 9.90835L6.3076 7.71761C6.40832 7.7579 6.51408 7.78811 6.62488 7.80826C6.73567 7.8284 6.85151 7.84351 6.97238 7.85359H6.98748H7.00259C7.1839 7.85359 7.35764 7.89387 7.52384 7.97445C7.69003 8.05503 7.82349 8.17087 7.92422 8.32195C7.95443 8.37231 7.99221 8.40757 8.03753 8.42771C8.08286 8.44786 8.1307 8.45793 8.18106 8.45793C8.22135 8.45793 8.25661 8.45289 8.28682 8.44282C8.31704 8.43275 8.34726 8.41764 8.37747 8.39749C8.44798 8.34713 8.49079 8.27914 8.5059 8.19353C8.52101 8.10791 8.50338 8.02985 8.45302 7.95935ZM3.57294 0.994284C3.61323 0.974139 3.65604 0.961549 3.70136 0.956512C3.74669 0.951476 3.79453 0.948958 3.8449 0.948958C3.86504 0.948958 3.88519 0.943922 3.90533 0.933849C3.92548 0.923778 3.95066 0.913705 3.98087 0.903632C4.09167 0.843198 4.21002 0.797873 4.33593 0.767655C4.46183 0.737438 4.59025 0.722329 4.7212 0.722329C5.20467 0.722329 5.61512 0.903632 5.95255 1.26624C6.28997 1.62885 6.46876 2.07203 6.4889 2.59579C6.38818 2.52529 6.2799 2.46989 6.16407 2.4296C6.04823 2.38931 5.92485 2.36917 5.79391 2.36917H4.10174C4.06145 2.36917 4.02116 2.36161 3.98087 2.3465C3.94058 2.33139 3.90533 2.31377 3.87511 2.29362C3.8449 2.26341 3.81972 2.23571 3.79957 2.21053C3.77943 2.18534 3.75928 2.15765 3.73914 2.12743C3.70892 2.04685 3.66108 1.9839 3.5956 1.93857C3.53013 1.89325 3.45711 1.87562 3.37653 1.88569C3.29595 1.88569 3.22293 1.91339 3.15746 1.96879C3.09199 2.02419 3.04918 2.09218 3.02903 2.17275C2.98874 2.32384 2.93083 2.47241 2.85528 2.61846C2.77974 2.76451 2.69161 2.903 2.59088 3.03394C2.50023 2.56054 2.55059 2.12743 2.74197 1.7346C2.93334 1.34178 3.21034 1.09501 3.57294 0.994284ZM2.81751 3.71383C2.95853 3.58289 3.08443 3.44188 3.19523 3.29079C3.30602 3.1397 3.40171 2.97855 3.48229 2.80731C3.57294 2.86775 3.67115 2.91559 3.77691 2.95085C3.88267 2.9861 3.99095 3.00373 4.10174 3.00373H5.79391C5.89463 3.00373 5.98528 3.03143 6.06586 3.08682C6.14644 3.14222 6.20687 3.21021 6.24716 3.29079C6.24716 3.63325 6.20184 3.95557 6.11119 4.25774C6.02053 4.55991 5.88959 4.82683 5.71836 5.0585C5.54713 5.28009 5.36079 5.4488 5.15934 5.56463C4.9579 5.68047 4.74638 5.73838 4.52478 5.73838C4.31326 5.73838 4.11182 5.68802 3.92044 5.5873C3.72906 5.48657 3.5528 5.34052 3.39164 5.14915C3.24055 4.95777 3.11465 4.74121 3.01392 4.49948C2.9132 4.25774 2.84773 3.99586 2.81751 3.71383ZM4.52478 9.16803L3.28588 7.38522C3.44704 7.2442 3.58805 7.08305 3.70892 6.90174C3.82979 6.72044 3.9154 6.51899 3.96577 6.2974C4.05642 6.32762 4.14707 6.35028 4.23772 6.36539C4.32837 6.3805 4.42406 6.38805 4.52478 6.38805C4.61543 6.38805 4.7086 6.3805 4.80429 6.36539C4.89998 6.35028 4.99315 6.32762 5.0838 6.2974C5.13416 6.51899 5.21726 6.72044 5.33309 6.90174C5.44893 7.08305 5.58742 7.2442 5.74858 7.38522L4.52478 9.16803ZM14.0281 9.00184H14.013H13.9979C13.6453 9.00184 13.3406 8.88349 13.0838 8.64679C12.827 8.41008 12.6784 8.12554 12.6381 7.79315C12.8395 7.64206 13.0183 7.46076 13.1745 7.24924C13.3306 7.03772 13.464 6.80102 13.5748 6.53914C13.5849 6.5895 13.6101 6.63483 13.6504 6.67511C13.6907 6.7154 13.736 6.74059 13.7864 6.75066C13.8065 6.76073 13.8216 6.76577 13.8317 6.76577H13.877C13.9274 6.76577 13.9752 6.75569 14.0205 6.73555C14.0659 6.7154 14.1036 6.68519 14.1338 6.6449C14.3554 6.36287 14.5242 6.03804 14.64 5.67039C14.7558 5.30275 14.8087 4.92252 14.7986 4.52969C14.7785 4.14694 14.7029 3.7793 14.572 3.42677C14.4411 3.07423 14.2598 2.76199 14.0281 2.49004C13.7864 2.20801 13.5119 1.99145 13.2047 1.84037C12.8975 1.68928 12.5777 1.61374 12.2453 1.61374H12.1697H12.1093C11.9381 1.54323 11.7618 1.48783 11.5805 1.44754C11.3992 1.40725 11.2129 1.39214 11.0215 1.40222C10.6387 1.41229 10.2736 1.51049 9.92611 1.69683C9.57861 1.88317 9.27392 2.14757 9.01204 2.49004C8.76023 2.81235 8.57137 3.18251 8.44546 3.60052C8.31956 4.01852 8.26668 4.45415 8.28682 4.90741C8.28682 4.97792 8.28934 5.04842 8.29438 5.11893C8.29941 5.18944 8.30697 5.25994 8.31704 5.33045C8.34726 5.52183 8.38755 5.70816 8.43791 5.88947C8.48827 6.07077 8.55374 6.24704 8.63432 6.41827C8.65447 6.46863 8.68972 6.51144 8.74008 6.54669C8.79044 6.58195 8.84584 6.59957 8.90627 6.59957C8.96671 6.60964 9.02211 6.59957 9.07247 6.56935C9.12283 6.53914 9.16312 6.49885 9.19334 6.44849C9.21348 6.42834 9.23111 6.40568 9.24622 6.3805C9.26133 6.35532 9.27895 6.32762 9.2991 6.2974C9.36961 6.51899 9.45774 6.72548 9.5635 6.91685C9.66926 7.10823 9.79265 7.28449 9.93366 7.44565C9.99409 7.50609 10.057 7.56652 10.1225 7.62696C10.188 7.68739 10.256 7.74279 10.3265 7.79315C10.2862 8.12554 10.1376 8.41008 9.88078 8.64679C9.62393 8.88349 9.31924 9.00184 8.96671 9.00184H8.93649C8.46309 9.01191 8.06019 9.18818 7.72781 9.53064C7.39542 9.8731 7.22922 10.2861 7.22922 10.7695V12.6732C7.22922 12.7639 7.25944 12.8419 7.31987 12.9074C7.38031 12.9729 7.45585 13.0056 7.5465 13.0056H15.4181C15.4987 13.0056 15.5717 12.9729 15.6372 12.9074C15.7026 12.8419 15.7354 12.7639 15.7354 12.6732V10.7695C15.7354 10.2861 15.5692 9.8731 15.2368 9.53064C14.9044 9.18818 14.5015 9.01191 14.0281 9.00184ZM9.02714 5.61751C9.01707 5.55708 9.00448 5.49413 8.98937 5.42866C8.97426 5.36319 8.96167 5.30023 8.9516 5.2398C8.94153 5.17936 8.93397 5.12145 8.92894 5.06605C8.9239 5.01065 8.92138 4.9477 8.92138 4.87719C8.91131 4.50451 8.95916 4.14694 9.06492 3.80448C9.17068 3.46202 9.32428 3.15481 9.52573 2.88286C9.72718 2.62098 9.95884 2.41701 10.2207 2.27096C10.4826 2.12491 10.7596 2.05189 11.0517 2.05189C11.0618 2.05189 11.1524 2.05692 11.3237 2.06699C11.4949 2.07707 11.6863 2.13246 11.8978 2.23319C11.928 2.24326 11.9557 2.25082 11.9809 2.25585C12.0061 2.26089 12.0338 2.26341 12.064 2.26341H12.1395H12.2302C12.4719 2.26341 12.7061 2.3188 12.9327 2.4296C13.1593 2.5404 13.3633 2.70156 13.5446 2.91308C13.7259 3.1246 13.8694 3.37137 13.9752 3.6534C14.081 3.93542 14.1389 4.23256 14.149 4.5448C14.159 4.71603 14.1515 4.88475 14.1263 5.05094C14.1011 5.21714 14.0633 5.37578 14.013 5.52686C13.9928 5.48657 13.9752 5.44628 13.9601 5.40599C13.945 5.3657 13.9274 5.32541 13.9072 5.28512C13.7561 4.95273 13.5522 4.66315 13.2953 4.41638C13.0385 4.16961 12.7539 3.98075 12.4417 3.84981C12.4014 3.82966 12.3586 3.81959 12.3133 3.81959C12.2679 3.81959 12.2251 3.82966 12.1848 3.84981C12.1446 3.85988 12.1093 3.88254 12.0791 3.9178C12.0489 3.95305 12.0237 3.99082 12.0035 4.03111C11.9834 4.09155 11.9607 4.14946 11.9355 4.20486C11.9104 4.26026 11.8827 4.31314 11.8525 4.3635C11.7719 4.51459 11.651 4.63294 11.4898 4.71855C11.3287 4.80417 11.1524 4.84194 10.961 4.83187H10.8704H10.7948C10.6538 4.83187 10.5153 4.84698 10.3794 4.87719C10.2434 4.90741 10.1099 4.94266 9.97899 4.98295C9.85812 5.03331 9.70451 5.11641 9.51817 5.23224C9.33183 5.34808 9.16816 5.4765 9.02714 5.61751ZM9.8279 5.79882C9.88833 5.75853 9.95129 5.72076 10.0168 5.6855C10.0822 5.65025 10.1452 5.61751 10.2056 5.5873C10.3063 5.55708 10.4071 5.5319 10.5078 5.51175C10.6085 5.49161 10.7092 5.48154 10.81 5.48154H10.8704H10.9459C11.2582 5.49161 11.5452 5.42362 11.8071 5.27757C12.069 5.13152 12.2705 4.93259 12.4115 4.68078C12.4215 4.66064 12.4316 4.64301 12.4417 4.6279C12.4518 4.61279 12.4618 4.59517 12.4719 4.57502C12.6129 4.66567 12.7464 4.77395 12.8723 4.89986C12.9982 5.02576 13.1065 5.16929 13.1971 5.33045V5.34556V5.36067C13.177 5.66284 13.114 5.9499 13.0083 6.22186C12.9025 6.49381 12.769 6.73051 12.6079 6.93196C12.4467 7.12334 12.2705 7.2719 12.0791 7.37766C11.8877 7.48342 11.6863 7.5363 11.4747 7.5363C11.1021 7.5363 10.7621 7.37263 10.4549 7.04528C10.1477 6.71792 9.9387 6.30244 9.8279 5.79882ZM10.9157 8.09532C11.0064 8.12554 11.0995 8.1482 11.1952 8.16331C11.2909 8.17842 11.3841 8.18597 11.4747 8.18597C11.5755 8.18597 11.6711 8.17842 11.7618 8.16331C11.8525 8.1482 11.9431 8.12554 12.0338 8.09532C12.1043 8.36728 12.2226 8.61405 12.3888 8.83564C12.555 9.05724 12.759 9.23854 13.0007 9.37955C12.9101 9.71194 12.7237 9.98641 12.4417 10.203C12.1597 10.4195 11.8373 10.5278 11.4747 10.5278C11.1222 10.5278 10.8049 10.4195 10.5229 10.203C10.2409 9.98641 10.0545 9.71194 9.96388 9.37955C10.1955 9.23854 10.397 9.05724 10.5682 8.83564C10.7395 8.61405 10.8553 8.36728 10.9157 8.09532ZM15.0857 12.3559H7.86378V10.7695C7.86378 10.4573 7.97458 10.1904 8.19617 9.96879C8.41776 9.7472 8.68468 9.6364 8.99693 9.6364H9.02714C9.08758 9.6364 9.14298 9.63388 9.19334 9.62884C9.2437 9.62381 9.2991 9.61625 9.35953 9.60618C9.50055 10.0594 9.76495 10.4346 10.1527 10.7318C10.5405 11.0289 10.9812 11.1775 11.4747 11.1775C11.9683 11.1775 12.4115 11.0289 12.8043 10.7318C13.1971 10.4346 13.464 10.0594 13.605 9.60618C13.6554 9.61625 13.7083 9.62381 13.7637 9.62884C13.8191 9.63388 13.877 9.6364 13.9374 9.6364H13.9525H13.9677C14.2799 9.6364 14.5443 9.7472 14.7609 9.96879C14.9774 10.1904 15.0857 10.4573 15.0857 10.7695V12.3559Z" fill="#1DA678"/>
</svg>
