<?xml version="1.0" encoding="UTF-8"?>
<svg id="Layer_2" data-name="Layer 2" xmlns="http://www.w3.org/2000/svg" viewBox="0 0 873.71 321.07">
  <defs>
    <style>
      .cls-1 {
        font-size: 34.14px;
        letter-spacing: .14em;
      }

      .cls-1, .cls-2, .cls-3 {
        isolation: isolate;
      }

      .cls-1, .cls-3 {
        font-family: Poppins-Black, Poppins;
        font-weight: 800;
      }

      .cls-1, .cls-4 {
        fill: #ffce44;
      }

      .cls-5, .cls-3 {
        fill: #fff;
      }

      .cls-5, .cls-4 {
        stroke-width: 0px;
      }

      .cls-3 {
        font-size: 82.83px;
      }
    </style>
  </defs>
  <g id="White_logo" data-name="White logo">
    <polygon class="cls-5" points="207.63 21.33 207.63 34.54 195.73 34.54 195.73 45.51 182.52 45.51 182.52 34.54 170.62 34.54 170.62 21.33 183.12 21.33 183.12 10.2 196.33 10.2 196.33 21.33 207.63 21.33"/>
    <g>
      <path class="cls-4" d="M140.98,254.28c4.21-18.53,20.42-31.51,35.6-42.94-12.44,8.56-22.28,20.84-27.92,34.85,19.98-16.28,37.32-35.79,51.16-57.53-12.26,1.74-24.35,4.76-35.99,9-4.57,1.66-9.19,3.59-12.7,6.95-2.84,2.72-4.77,6.23-6.66,9.68-6.68,12.17-13.33,27.46-5.78,39.12l2.28.89Z"/>
      <path class="cls-4" d="M122.31,307.7c-.72-20.47-9.51-39.68-18.14-58.25-2.47-5.31-4.94-10.63-7.79-15.74-11.87-21.28-30.43-38.77-52.39-49.34,26.92,20.66,42.02,52.78,56.13,83.65,6.58,14.4,13.3,30.43,8.71,45.58-3.65-7.59-11.64-12.18-19.68-14.66-8.05-2.48-16.54-3.31-24.56-5.89-17.33-5.58-30.99-18.79-43.77-31.76-6.76-6.86-13.67-14.09-16.75-23.21-1.98-5.84-2.25-12.1-2.51-18.27-.49-11.57-.97-23.14-1.46-34.71-.28-6.77-.28-14.35,4.4-19.24,6.51-6.8,17.69-4.42,26.65-1.53,20.06,6.46,40.94,13.42,55.79,28.38,5.99,6.04,10.77,13.18,14.97,20.58,15.44,27.13,23.61,58.36,23.44,89.57l-3.04,4.84Z"/>
      <polygon class="cls-5" points="198.5 85.63 198.5 121.77 165.95 121.77 165.95 151.77 129.8 151.77 129.8 121.77 97.25 121.77 97.25 85.63 131.43 85.63 131.43 55.19 167.59 55.19 167.59 85.63 198.5 85.63"/>
      <path class="cls-4" d="M200.23.84c44.88,2.93,82.3,48.3,76.63,92.91-1.12,8.83-3.68,17.66-2.54,26.49,2.92,22.65,28.9,38.39,28.3,61.22-12.1.33-17.71,19.57-7.67,26.34-2.79,1.95-5.59,3.91-8.38,5.86,2.79,3.62,5.58,7.25,8.38,10.87-5.98-.96-10.61,5.72-11.01,11.77-.4,6.04,1.72,12.04,1.33,18.08-1,15.69-18.42,25.58-34.14,26.08-15.72.51-30.96-5.23-46.62-6.62-33.22-2.94-67.34,15.79-82.69,45.39,13.16-29.25,30.23-56.75,50.6-81.53,23.21-28.24,50.91-53.27,68.62-85.25,12.93-23.35,20.06-49.88,20.56-76.56.16-8.23-.32-16.56-2.68-24.45-6.8-22.75-27.62-37.95-47.15-51.44l-11.53.84Z"/>
      <path class="cls-5" d="M209.86,2.68c44.88,2.93,82.3,48.3,76.63,92.91-1.12,8.83-3.68,17.66-2.54,26.49,2.92,22.65,28.9,38.39,28.3,61.22-12.1.33-17.71,19.57-7.67,26.34-2.79,1.95-5.59,3.91-8.38,5.86,2.79,3.62,5.58,7.25,8.38,10.87-5.98-.96-10.61,5.72-11.01,11.77-.4,6.04,1.72,12.04,1.33,18.08-1,15.69-18.42,25.58-34.14,26.08-15.72.51-30.96-5.23-46.62-6.62-33.22-2.94-67.34,15.79-82.69,45.39,13.16-29.25,30.23-56.75,50.6-81.53,23.21-28.24,50.91-53.27,68.62-85.25,12.93-23.35,20.06-49.88,20.56-76.56.16-8.23-.32-16.56-2.68-24.45-6.8-22.75-27.62-37.95-47.15-51.44l-11.53.84Z"/>
      <g>
        <text class="cls-3" transform="translate(333.61 192.19)"><tspan x="0" y="0">HAPPY </tspan></text>
        <text class="cls-3" transform="translate(642.22 192.19)"><tspan x="0" y="0">MIND</tspan></text>
      </g>
      <g class="cls-2">
        <text class="cls-1" transform="translate(333.61 240.27)"><tspan x="0" y="0">ONLINE MENTAL HEALTH </tspan></text>
        <text class="cls-1" transform="translate(333.61 281.24)"><tspan x="0" y="0" xml:space="preserve">        CONSULTANCY</tspan></text>
      </g>
      <polygon class="cls-5" points="77.67 48.58 77.67 65.03 62.85 65.03 62.85 78.69 46.39 78.69 46.39 65.03 31.57 65.03 31.57 48.58 47.14 48.58 47.14 34.72 63.59 34.72 63.59 48.58 77.67 48.58"/>
      <polygon class="cls-5" points="85.62 134.47 85.62 146.57 74.72 146.57 74.72 156.62 62.61 156.62 62.61 146.57 51.7 146.57 51.7 134.47 63.15 134.47 63.15 124.27 75.27 124.27 75.27 134.47 85.62 134.47"/>
      <polygon class="cls-5" points="250.33 83.29 250.33 96.8 238.15 96.8 238.15 108.03 224.63 108.03 224.63 96.8 212.46 96.8 212.46 83.29 225.24 83.29 225.24 71.9 238.77 71.9 238.77 83.29 250.33 83.29"/>
    </g>
  </g>
</svg>