<svg width="16" height="16" viewBox="0 0 16 16" fill="none" xmlns="http://www.w3.org/2000/svg">
<path d="M15.9844 6.42944C15.9844 6.23153 15.9141 6.06226 15.7734 5.92163C15.6328 5.78101 15.4635 5.71069 15.2656 5.71069L0.71875 5.72632C0.520833 5.72632 0.351562 5.79663 0.210938 5.93726C0.0703125 6.07788 0 6.24715 0 6.44507L0.015625 14.6794C0.015625 14.8774 0.0859375 15.0466 0.226562 15.1873C0.367188 15.3279 0.536458 15.3982 0.734375 15.3982L15.2812 15.3669C15.375 15.3669 15.4661 15.3487 15.5547 15.3123C15.6432 15.2758 15.724 15.2263 15.7969 15.1638C15.8594 15.0909 15.9089 15.0102 15.9453 14.9216C15.9818 14.8331 16 14.7419 16 14.6482L15.9844 6.42944ZM14.4844 6.42944L8 10.9294L1.51562 6.44507L14.4844 6.42944ZM10.7031 11.6482L14.5625 14.6482L1.42188 14.6638L5.3125 11.6482C5.38542 11.5961 5.42969 11.5206 5.44531 11.4216C5.46094 11.3227 5.4375 11.2315 5.375 11.1482C5.3125 11.0753 5.23177 11.031 5.13281 11.0154C5.03385 10.9998 4.94792 11.0232 4.875 11.0857L0.734375 14.3044L0.71875 6.77319L7.79688 11.6638C7.82812 11.6847 7.86198 11.7003 7.89844 11.7107C7.9349 11.7211 7.96875 11.7263 8 11.7263C8.04167 11.7263 8.07812 11.7211 8.10938 11.7107C8.14062 11.7003 8.17188 11.6847 8.20312 11.6638L15.2656 6.75757L15.2812 14.3044L11.1406 11.0857C11.0677 11.0232 10.9818 10.9998 10.8828 11.0154C10.7839 11.031 10.7031 11.0753 10.6406 11.1482C10.5781 11.2315 10.5521 11.3227 10.5625 11.4216C10.5729 11.5206 10.6198 11.5961 10.7031 11.6482ZM9.70312 1.97632L8.39062 0.804443C8.27604 0.700276 8.14583 0.648193 8 0.648193C7.85417 0.648193 7.72396 0.700276 7.60938 0.804443L6.29688 1.97632C6.22396 2.03882 6.1849 2.11955 6.17969 2.21851C6.17448 2.31746 6.20312 2.4034 6.26562 2.47632C6.32812 2.54924 6.41146 2.5883 6.51562 2.59351C6.61979 2.59871 6.70833 2.57007 6.78125 2.50757L7.64062 1.72632V4.50757C7.64062 4.60132 7.67448 4.68465 7.74219 4.75757C7.8099 4.83049 7.89583 4.86694 8 4.86694C8.10417 4.86694 8.1901 4.83049 8.25781 4.75757C8.32552 4.68465 8.35938 4.60132 8.35938 4.50757V1.72632L9.21875 2.50757C9.26042 2.53882 9.30208 2.56226 9.34375 2.57788C9.38542 2.59351 9.42708 2.60132 9.46875 2.60132C9.51042 2.60132 9.55469 2.5909 9.60156 2.57007C9.64844 2.54924 9.69271 2.51799 9.73438 2.47632C9.79688 2.4034 9.82552 2.31746 9.82031 2.21851C9.8151 2.11955 9.77604 2.03882 9.70312 1.97632Z" fill="#1DA678"/>
</svg>
