<svg width="16" height="17" viewBox="0 0 16 17" fill="none" xmlns="http://www.w3.org/2000/svg">
<path d="M10.5684 2.87569C10.2763 2.58359 9.92881 2.43754 9.52591 2.43754C9.12301 2.43754 8.79063 2.58359 8.52874 2.87569V2.8908C8.12585 3.29369 7.78339 3.86782 7.50136 4.61318C7.40063 4.88513 7.30495 5.10672 7.21429 5.27796C6.97256 4.99593 6.67039 4.85491 6.30778 4.85491C5.97539 4.85491 5.69085 4.97327 5.45414 5.20997C5.21744 5.44667 5.09909 5.73121 5.09909 6.0636C5.09909 6.39599 5.21744 6.68054 5.45414 6.91724C5.69085 7.15394 5.97539 7.27229 6.30778 7.27229C6.65024 7.27229 6.94738 7.13128 7.19919 6.84925L7.2294 6.87947L2.81769 11.2761L2.68172 11.4272V13.3459L2.19824 13.8445L2.87813 14.5244L3.37671 14.0409H5.2955L5.44659 13.905L13.4693 5.86719C13.7513 5.58516 13.8923 5.24774 13.8923 4.85491C13.8923 4.46209 13.7513 4.12467 13.4693 3.84264L12.88 3.2534C12.598 2.97138 12.2606 2.83036 11.8677 2.83036C11.5152 2.83036 11.1979 2.95627 10.9159 3.20808L10.5684 2.87569ZM9.23885 3.52536C9.30935 3.44478 9.41008 3.40449 9.54102 3.40449C9.67196 3.40449 9.78779 3.45485 9.88852 3.55558L10.2209 3.88796L7.25962 6.83414C7.7431 6.32045 8.12585 5.69596 8.40787 4.96068C8.5086 4.69879 8.57659 4.52253 8.61184 4.43187C8.64709 4.34122 8.72012 4.20776 8.83091 4.0315C8.94171 3.85523 9.06762 3.69659 9.20863 3.55558L9.23885 3.52536ZM11.5354 3.93329C11.6361 3.83257 11.7469 3.7822 11.8677 3.7822C11.9886 3.7822 12.0994 3.83257 12.2001 3.93329L12.7894 4.52253C13.011 4.74412 13.011 4.96571 12.7894 5.1873L12.3512 5.61034L11.1123 4.37144L11.49 3.99372L11.5354 3.93329ZM10.4173 5.06643L11.6562 6.30534L7.99994 9.96162L6.76104 8.72271L10.4173 5.06643ZM6.06604 6.0636C6.06604 6.0636 6.06604 6.02331 6.06604 5.94273C6.06604 5.86215 6.14662 5.82187 6.30778 5.82187C6.46894 5.82187 6.54952 5.90244 6.54952 6.0636C6.54952 6.22476 6.46894 6.30534 6.30778 6.30534C6.14662 6.30534 6.06604 6.22476 6.06604 6.0636ZM6.06604 9.41771L7.30495 10.6566L4.88757 13.074H3.64867V11.8351L6.06604 9.41771Z" fill="#1DA678"/>
</svg>
