<svg width="15" height="17" viewBox="0 0 15 17" fill="none" xmlns="http://www.w3.org/2000/svg">
<path d="M7.60694 9.30325C7.02274 9.30325 6.47379 9.19245 5.9601 8.97086C5.44641 8.74927 4.99567 8.44458 4.60788 8.05679C4.22009 7.669 3.9154 7.21826 3.69381 6.70457C3.47222 6.19088 3.36142 5.64193 3.36142 5.05773C3.36142 4.46346 3.47222 3.90948 3.69381 3.39579C3.9154 2.8821 4.22009 2.43136 4.60788 2.04357C4.99567 1.65578 5.44641 1.35109 5.9601 1.1295C6.47379 0.907907 7.02274 0.797112 7.60694 0.797112C8.20121 0.797112 8.75519 0.907907 9.26888 1.1295C9.78257 1.35109 10.2333 1.65578 10.6211 2.04357C11.0089 2.43136 11.3136 2.8821 11.5352 3.39579C11.7568 3.90948 11.8676 4.46346 11.8676 5.05773C11.8676 5.64193 11.7568 6.19088 11.5352 6.70457C11.3136 7.21826 11.0089 7.669 10.6211 8.05679C10.2333 8.44458 9.78257 8.74927 9.26888 8.97086C8.75519 9.19245 8.20121 9.30325 7.60694 9.30325ZM7.60694 1.56765C7.13353 1.56765 6.68531 1.6583 6.26227 1.8396C5.83923 2.02091 5.46907 2.2702 5.15179 2.58748C4.83451 2.90476 4.58522 3.27492 4.40391 3.69796C4.22261 4.121 4.13196 4.57426 4.13196 5.05773C4.13196 5.53114 4.22261 5.97936 4.40391 6.4024C4.58522 6.82544 4.83451 7.1956 5.15179 7.51288C5.46907 7.83016 5.83923 8.07945 6.26227 8.26076C6.68531 8.44206 7.13353 8.53271 7.60694 8.53271C8.09041 8.53271 8.54367 8.44206 8.96671 8.26076C9.38975 8.07945 9.75991 7.83016 10.0772 7.51288C10.3945 7.1956 10.6438 6.82544 10.8251 6.4024C11.0064 5.97936 11.097 5.53114 11.097 5.05773C11.097 4.57426 11.0064 4.121 10.8251 3.69796C10.6438 3.27492 10.3945 2.90476 10.0772 2.58748C9.75991 2.2702 9.38975 2.02091 8.96671 1.8396C8.54367 1.6583 8.09041 1.56765 7.60694 1.56765ZM13.8015 16.2683H1.42752C1.10521 16.2683 0.830732 16.155 0.604104 15.9284C0.377475 15.7017 0.26416 15.4273 0.26416 15.1049C0.26416 15.0848 0.30445 14.8103 0.385029 14.2815C0.465608 13.7527 0.742599 13.1761 1.216 12.5516C1.48796 12.189 1.81027 11.8642 2.18295 11.5771C2.55563 11.29 2.97363 11.0458 3.43696 10.8443C4.00102 10.5925 4.63306 10.4011 5.33309 10.2702C6.03312 10.1393 6.79107 10.0738 7.60694 10.0738C8.43287 10.0738 9.19586 10.1393 9.89589 10.2702C10.5959 10.4011 11.228 10.5925 11.792 10.8443C12.2553 11.0458 12.6734 11.29 13.046 11.5771C13.4187 11.8642 13.741 12.189 14.013 12.5516C14.4864 13.1761 14.7634 13.7527 14.844 14.2815C14.9245 14.8103 14.9648 15.0848 14.9648 15.1049C14.9648 15.4273 14.8515 15.7017 14.6249 15.9284C14.3982 16.155 14.1238 16.2683 13.8015 16.2683ZM9.49551 10.9954C9.49551 10.9954 9.34946 10.9727 9.05736 10.9274C8.76526 10.8821 8.28179 10.8594 7.60694 10.8594C6.93209 10.8594 6.3076 10.9048 5.73347 10.9954C5.14927 11.0861 4.61292 11.2195 4.12441 11.3958C3.63589 11.5721 3.2053 11.7962 2.83262 12.0681C2.44987 12.33 2.12252 12.6372 1.85056 12.9897C1.45774 13.5135 1.22104 13.997 1.14046 14.4402L1.0347 15.1049C1.0347 15.2157 1.07247 15.3089 1.14801 15.3845C1.22356 15.46 1.31673 15.4978 1.42752 15.4978H13.8015C13.9123 15.4978 14.0054 15.46 14.081 15.3845C14.1565 15.3089 14.1943 15.2157 14.1943 15.1049L14.0734 14.4402L13.3633 12.9897C13.1014 12.6372 12.7791 12.33 12.3964 12.0681C12.0136 11.7962 11.5805 11.5721 11.097 11.3958C10.6135 11.2195 10.0797 11.0861 9.49551 10.9954Z" fill="#1DA678"/>
</svg>
