<svg width="16" height="17" viewBox="0 0 16 17" fill="none" xmlns="http://www.w3.org/2000/svg">
<path d="M12.6408 10.6194C12.4741 10.4527 12.2944 10.3251 12.1017 10.2366C11.909 10.148 11.7085 10.1038 11.5002 10.1038C11.2918 10.1038 11.0913 10.148 10.8986 10.2366C10.7059 10.3251 10.521 10.4527 10.3439 10.6194L9.2814 11.6819C9.23973 11.6611 9.19546 11.6402 9.14859 11.6194C9.10171 11.5986 9.05744 11.5725 9.01578 11.5413C8.96369 11.5204 8.90901 11.4944 8.85171 11.4631C8.79442 11.4319 8.73973 11.4006 8.68765 11.3694C8.18765 11.0569 7.70849 10.6897 7.25015 10.2678C6.79182 9.84595 6.3439 9.36938 5.9064 8.83813C5.69807 8.5673 5.52099 8.3173 5.37515 8.08813C5.22932 7.85897 5.10432 7.6298 5.00015 7.40063C5.13557 7.27563 5.26838 7.14803 5.39859 7.01782C5.5288 6.88761 5.6564 6.76001 5.7814 6.63501C5.82307 6.58293 5.86994 6.53345 5.92203 6.48657C5.97411 6.4397 6.02099 6.39022 6.06265 6.33813C6.41682 5.98397 6.5939 5.59595 6.5939 5.17407C6.5939 4.7522 6.41682 4.36418 6.06265 4.01001L5.14078 3.08813C5.08869 3.03605 5.03661 2.98136 4.98453 2.92407C4.93244 2.86678 4.88036 2.81209 4.82828 2.76001C4.72411 2.65584 4.61994 2.55168 4.51578 2.44751C4.41161 2.34334 4.30744 2.23918 4.20328 2.13501C4.03661 1.96834 3.85692 1.84334 3.66421 1.76001C3.47151 1.67668 3.27098 1.63501 3.06265 1.63501C2.85432 1.63501 2.6538 1.67668 2.46109 1.76001C2.26838 1.84334 2.08869 1.96834 1.92203 2.13501C1.92203 2.13501 1.91682 2.13501 1.9064 2.13501L0.765777 3.30688C0.547027 3.51522 0.377756 3.7522 0.257964 4.01782C0.138172 4.28345 0.0626515 4.5673 0.0314015 4.86938C-0.0102651 5.35897 0.023589 5.82251 0.132964 6.26001C0.242339 6.69751 0.354318 7.0673 0.468902 7.36938C0.739735 8.10897 1.08609 8.83032 1.50796 9.53345C1.92984 10.2366 2.44286 10.9527 3.04703 11.6819C3.42203 12.1298 3.81265 12.5465 4.2189 12.9319C4.62515 13.3277 5.04963 13.7001 5.49234 14.0491C5.93505 14.398 6.39078 14.7183 6.85953 15.01C7.33869 15.3121 7.83349 15.5829 8.3439 15.8225C8.72932 16.01 9.17463 16.1949 9.67984 16.3772C10.185 16.5595 10.7293 16.6715 11.3127 16.7131C11.3439 16.7131 11.3778 16.7131 11.4142 16.7131C11.4507 16.7131 11.4897 16.7131 11.5314 16.7131C11.9168 16.7131 12.2736 16.6428 12.6017 16.5022C12.9298 16.3616 13.2189 16.1506 13.4689 15.8694C13.4793 15.8694 13.4845 15.8694 13.4845 15.8694C13.4845 15.8694 13.4845 15.8642 13.4845 15.8538C13.5783 15.7496 13.6746 15.648 13.7736 15.5491C13.8725 15.4501 13.9741 15.3486 14.0783 15.2444C14.1512 15.1819 14.2241 15.1142 14.297 15.0413C14.3699 14.9683 14.4429 14.8902 14.5158 14.8069C14.6824 14.6402 14.81 14.4579 14.8986 14.26C14.9871 14.0621 15.0314 13.859 15.0314 13.6506C15.0314 13.4423 14.9871 13.2392 14.8986 13.0413C14.81 12.8433 14.6772 12.6558 14.5002 12.4788L12.6408 10.6194ZM13.8595 14.1819C13.7866 14.2548 13.7163 14.3225 13.6486 14.385C13.5809 14.4475 13.5106 14.5152 13.4377 14.5881C13.3335 14.6923 13.2241 14.8017 13.1095 14.9163C12.9949 15.0308 12.8856 15.1454 12.7814 15.26C12.6147 15.4475 12.4272 15.5855 12.2189 15.6741C12.0106 15.7626 11.7762 15.8069 11.5158 15.8069C11.4949 15.8069 11.4715 15.8069 11.4455 15.8069C11.4194 15.8069 11.3908 15.8069 11.3595 15.8069C10.8595 15.7652 10.383 15.6637 9.92984 15.5022C9.47671 15.3407 9.07828 15.1767 8.73453 15.01C8.25536 14.7808 7.79182 14.5256 7.3439 14.2444C6.89599 13.9631 6.46369 13.6611 6.04703 13.3381C5.63036 13.0152 5.22932 12.6663 4.8439 12.2913C4.45849 11.9163 4.0939 11.5204 3.75015 11.1038C3.17723 10.4058 2.69286 9.72876 2.29703 9.07251C1.90119 8.41626 1.57307 7.74438 1.31265 7.05688C1.1564 6.64022 1.04963 6.26001 0.992339 5.91626C0.935047 5.57251 0.916818 5.24959 0.937652 4.94751C0.958485 4.74959 1.00536 4.5673 1.07828 4.40063C1.15119 4.23397 1.26057 4.08293 1.4064 3.94751L2.54703 2.79126C2.63036 2.70793 2.7163 2.64803 2.80484 2.61157C2.89338 2.57511 2.97932 2.55688 3.06265 2.55688C3.16682 2.55688 3.26317 2.58293 3.35171 2.63501C3.44026 2.68709 3.51057 2.73918 3.56265 2.79126C3.66682 2.89543 3.76838 2.99699 3.86734 3.09595C3.9663 3.19491 4.06786 3.29647 4.17203 3.40063C4.22411 3.45272 4.2788 3.50741 4.33609 3.5647C4.39338 3.62199 4.44807 3.67668 4.50015 3.72876L5.42203 4.65063C5.59911 4.82772 5.68765 5.0022 5.68765 5.17407C5.68765 5.34595 5.59911 5.52043 5.42203 5.69751C5.36994 5.74959 5.32046 5.79907 5.27359 5.84595C5.22671 5.89282 5.17724 5.9423 5.12515 5.99438C4.98974 6.14022 4.85171 6.28084 4.71109 6.41626C4.57046 6.55168 4.42724 6.68188 4.2814 6.80688C4.2814 6.8173 4.2788 6.82251 4.27359 6.82251C4.26838 6.82251 4.26578 6.82251 4.26578 6.82251C4.11994 6.96834 4.04703 7.10897 4.04703 7.24438C4.04703 7.3798 4.06265 7.49438 4.0939 7.58813C4.0939 7.59855 4.0939 7.60636 4.0939 7.61157C4.0939 7.61678 4.09911 7.61938 4.10953 7.61938C4.22411 7.91105 4.36994 8.20011 4.54703 8.48657C4.72411 8.77303 4.93765 9.07772 5.18765 9.40063H5.20328C5.66161 9.97355 6.14078 10.4866 6.64078 10.9397C7.14078 11.3928 7.66161 11.7913 8.20328 12.135C8.26578 12.1767 8.33348 12.2157 8.4064 12.2522C8.47932 12.2887 8.54703 12.3225 8.60953 12.3538C8.67203 12.385 8.73192 12.4163 8.78921 12.4475C8.84651 12.4788 8.90119 12.51 8.95328 12.5413C8.95328 12.5413 8.95848 12.5439 8.9689 12.5491C8.97932 12.5543 8.98453 12.5569 8.98453 12.5569C9.04703 12.5881 9.10432 12.6116 9.1564 12.6272C9.20848 12.6428 9.26578 12.6506 9.32828 12.6506C9.46369 12.6506 9.57567 12.6194 9.66421 12.5569C9.75276 12.4944 9.80744 12.4475 9.82828 12.4163L10.9845 11.26C11.047 11.1975 11.1225 11.1402 11.2111 11.0881C11.2996 11.0361 11.396 11.01 11.5002 11.01C11.6043 11.01 11.6981 11.0361 11.7814 11.0881C11.8647 11.1402 11.9324 11.1923 11.9845 11.2444C11.9845 11.2548 11.9845 11.26 11.9845 11.26C11.9845 11.26 11.9897 11.26 12.0002 11.26L13.8595 13.1194C14.0262 13.2965 14.1095 13.4736 14.1095 13.6506C14.1095 13.8277 14.0262 14.0048 13.8595 14.1819ZM8.64078 4.51001C9.08869 4.59334 9.51057 4.73657 9.9064 4.9397C10.3022 5.14282 10.6616 5.40584 10.9845 5.72876C11.297 6.05168 11.5574 6.41105 11.7658 6.80688C11.9741 7.20272 12.1147 7.61938 12.1877 8.05688C12.2085 8.17147 12.2606 8.26261 12.3439 8.33032C12.4272 8.39803 12.5262 8.43188 12.6408 8.43188C12.6512 8.43188 12.6616 8.43188 12.672 8.43188C12.6824 8.43188 12.6981 8.43188 12.7189 8.43188C12.8439 8.41105 12.9429 8.34855 13.0158 8.24438C13.0887 8.14022 13.1147 8.02563 13.0939 7.90063C13.0002 7.36938 12.8283 6.86418 12.5783 6.38501C12.3283 5.90584 12.0106 5.47355 11.6252 5.08813C11.2397 4.70272 10.8074 4.38501 10.3283 4.13501C9.84911 3.88501 9.3439 3.71313 8.81265 3.61938C8.68765 3.59855 8.57307 3.62459 8.4689 3.69751C8.36473 3.77043 8.30223 3.86938 8.2814 3.99438C8.26057 4.10897 8.28401 4.21834 8.35171 4.32251C8.41942 4.42668 8.51578 4.48918 8.64078 4.51001ZM15.9845 7.77563C15.9116 7.32772 15.8022 6.89543 15.6564 6.47876C15.521 6.06209 15.3517 5.65845 15.1486 5.26782C14.9455 4.8772 14.7137 4.49959 14.4533 4.13501C14.1824 3.78084 13.8908 3.4423 13.5783 3.11938C13.2554 2.80688 12.9168 2.52043 12.5627 2.26001C12.1981 1.98918 11.8205 1.7548 11.4298 1.55688C11.0392 1.35897 10.6356 1.18709 10.2189 1.04126C9.80223 0.905843 9.37515 0.796468 8.93765 0.713135C8.81265 0.692301 8.69807 0.718343 8.5939 0.79126C8.48973 0.864177 8.42723 0.963135 8.4064 1.08813C8.38557 1.21313 8.41161 1.32772 8.48453 1.43188C8.55744 1.53605 8.6564 1.59855 8.7814 1.61938C9.57307 1.7548 10.3205 2.0048 11.0236 2.36938C11.7267 2.73397 12.3647 3.20272 12.9377 3.77563C13.5106 4.33813 13.9793 4.97355 14.3439 5.68188C14.7085 6.39022 14.9533 7.13501 15.0783 7.91626C15.0991 8.03084 15.1538 8.12199 15.2423 8.1897C15.3309 8.25741 15.4272 8.29126 15.5314 8.29126C15.5522 8.29126 15.5679 8.29126 15.5783 8.29126C15.5887 8.29126 15.5991 8.29126 15.6095 8.29126C15.7345 8.27043 15.8335 8.20793 15.9064 8.10376C15.9793 7.99959 16.0054 7.89022 15.9845 7.77563Z" fill="#1DA678"/>
</svg>
