<svg width="15" height="16" viewBox="0 0 15 16" fill="none" xmlns="http://www.w3.org/2000/svg">
<path d="M7.49905 0.427921C11.6329 0.427921 14.9844 3.7795 14.9844 7.9133C14.9844 12.0471 11.6329 15.3987 7.49905 15.3987C3.36525 15.3987 0.0136719 12.0471 0.0136719 7.9133C0.0136719 3.7795 3.36525 0.427921 7.49905 0.427921ZM11.4913 8.41233C11.7667 8.41233 11.9903 8.1887 11.9903 7.9133C11.9903 7.6379 11.7667 7.41428 11.4913 7.41428H7.99808V3.9211C7.99808 3.6457 7.77445 3.42207 7.49905 3.42207C7.22365 3.42207 7.00003 3.6457 7.00003 3.9211V7.41428H3.50685C3.23145 7.41428 3.00782 7.6379 3.00782 7.9133C3.00782 8.1887 3.23145 8.41233 3.50685 8.41233H7.00003V11.9055C7.00003 12.1809 7.22365 12.4045 7.49905 12.4045C7.77445 12.4045 7.99808 12.1809 7.99808 11.9055V8.41233H11.4913Z" fill="#1DA678"/>
</svg>
