<svg width="57" height="59" viewBox="0 0 57 59" fill="none" xmlns="http://www.w3.org/2000/svg">
<g clip-path="url(#clip0_16_576)">
<path d="M3.78294 54.2551V50.6863C3.78294 49.7713 4.25878 49.0941 5.21047 48.6549L20.6387 41.3525C21.8466 40.8035 22.5237 39.8884 22.6702 38.6073C22.8166 37.3262 22.3956 36.2647 21.4074 35.4228C19.7236 34.1051 18.4059 32.1469 17.4542 29.548C16.5025 26.9492 16.0267 24.6432 16.0267 22.63V13.8453C16.0267 13.2596 16.2006 12.6191 16.5483 11.9236C16.896 11.2282 17.3536 10.5602 17.9209 9.9196C18.4883 9.27904 19.1746 8.66594 19.9798 8.08029C20.7851 7.49464 21.6361 6.9822 22.5329 6.54296C23.4297 6.10372 24.3814 5.74684 25.3879 5.47232C26.3945 5.19779 27.3737 5.06053 28.3253 5.06053C30.2287 5.06053 32.1595 5.53637 34.1178 6.48805C36.0761 7.43974 37.65 8.59274 38.8396 9.94705C40.0292 11.3014 40.624 12.6008 40.624 13.8453V22.63C40.624 24.7164 40.1848 27.0407 39.3063 29.6029C38.4278 32.1652 37.1467 34.1051 35.463 35.4228C35.1335 35.6791 34.8682 35.981 34.6668 36.3288C34.4655 36.6765 34.3191 37.0425 34.2276 37.4269C34.1361 37.8112 34.1086 38.2047 34.1452 38.6073C34.2184 39.2296 34.4381 39.7878 34.8041 40.2819C35.1701 40.776 35.6277 41.1512 36.1767 41.4074L45.0713 45.6351L47.1577 42.6703L37.6591 38.223C39.8553 36.466 41.4842 34.0777 42.5457 31.0579C43.6072 28.0381 44.1379 25.2289 44.1379 22.63V13.8453C44.1379 11.9419 43.3692 10.0386 41.8319 8.13519C40.2946 6.23183 38.2905 4.6579 35.8198 3.41339C33.3491 2.16888 30.8601 1.54663 28.3528 1.54663C25.8455 1.54663 23.3473 2.16888 20.8583 3.41339C18.3693 4.6579 16.3561 6.23183 14.8188 8.13519C13.2815 10.0386 12.5128 11.9419 12.5128 13.8453V22.63C12.5128 25.0458 13.071 27.8002 14.1874 30.8932C15.3038 33.9862 16.9601 36.4111 19.1563 38.1681L3.72804 45.4704C3.69144 45.4704 3.63653 45.4978 3.56332 45.5527C3.49012 45.6077 3.3254 45.6992 3.06918 45.8273C2.81296 45.9554 2.57504 46.0926 2.35542 46.2391C2.1358 46.3855 1.88873 46.5685 1.61421 46.7881C1.33968 47.0077 1.11091 47.2273 0.927899 47.447C0.744884 47.6666 0.58932 47.9045 0.461209 48.1607C0.333098 48.4169 0.269043 48.6915 0.269043 48.9843V54.2551C0.269043 55.2068 0.607622 56.0304 1.28478 56.7259C1.96194 57.4213 2.77636 57.769 3.72804 57.769H38.867L36.012 54.2551H3.78294ZM55.8326 41.2976C55.6862 41.1512 55.5215 41.0506 55.3385 40.9957C55.1554 40.9408 54.9816 40.9133 54.8169 40.9133C54.6521 40.9133 54.4783 40.9316 54.2953 40.9682C54.1122 41.0048 53.9475 41.078 53.8011 41.1878C53.6547 41.2976 53.5083 41.4257 53.3619 41.5722L45.8399 53.0472L41.173 48.3803C40.8436 48.0143 40.441 47.8313 39.9651 47.8313C39.4893 47.8313 39.0684 48.0143 38.7023 48.3803C38.5559 48.4901 38.4461 48.6274 38.3729 48.7921C38.2997 48.9568 38.2448 49.1307 38.2082 49.3137C38.1716 49.4967 38.1716 49.6798 38.2082 49.8628C38.2448 50.0458 38.2997 50.2196 38.3729 50.3844C38.4461 50.5491 38.5559 50.7046 38.7023 50.8511L44.9066 57.0553C45.2726 57.3847 45.6935 57.5494 46.1694 57.5494C46.6452 57.5494 47.0661 57.3847 47.4322 57.0553C47.5786 56.9089 47.6884 56.7259 47.7616 56.5062L56.162 43.7134C56.4548 43.3474 56.5738 42.9265 56.5189 42.4506C56.464 41.9748 56.2352 41.5905 55.8326 41.2976Z" fill="#1DA678"/>
</g>
<defs>
<clipPath id="clip0_16_576">
<rect width="56.6348" height="57.8146" fill="white" transform="matrix(1 0 0 -1 0.0629883 58.2085)"/>
</clipPath>
</defs>
</svg>
