<svg width="58" height="59" viewBox="0 0 58 59" fill="none" xmlns="http://www.w3.org/2000/svg">
<g clip-path="url(#clip0_16_587)">
<path d="M56.8059 33.0073C56.8059 30.4817 56.6961 28.2123 56.4765 26.1991C56.0738 22.6852 55.0764 19.4001 53.4842 16.3437C51.8919 13.2874 49.8879 10.6702 47.4721 8.49235C45.0563 6.31447 42.2379 4.60327 39.0168 3.35876C35.7957 2.11426 32.4099 1.492 28.8594 1.492C23.918 1.492 19.3609 2.6633 15.1881 5.00591C11.0154 7.34851 7.6479 10.5787 5.08568 14.6966C2.52346 18.8144 1.11424 23.3807 0.85802 28.3953C0.784813 30.1889 0.729909 31.5615 0.693305 32.5132V33.3367C0.693305 33.4465 0.684155 33.5563 0.665853 33.6662C0.647552 33.776 0.62925 33.8858 0.610948 33.9956C0.592647 34.1054 0.583496 34.2152 0.583496 34.325V46.1295C0.583496 47.4106 1.04104 48.5087 1.95611 49.4238C2.87119 50.3389 3.96929 50.7964 5.2504 50.7964H9.9722C11.2899 50.7964 12.3972 50.3389 13.2939 49.4238C14.1907 48.5087 14.6391 47.4106 14.6391 46.1295V34.325C14.6391 33.4831 14.4378 32.7053 14.0351 31.9916C13.6325 31.2778 13.0743 30.7105 12.3606 30.2895C11.6468 29.8686 10.8507 29.6581 9.9722 29.6581H5.2504C4.92097 29.6581 4.60984 29.6947 4.31702 29.7679C4.31702 29.6215 4.31702 29.4842 4.31702 29.3561C4.31702 29.228 4.32617 29.1182 4.34447 29.0267C4.36277 28.9352 4.37192 28.8437 4.37192 28.7522C4.37192 28.6607 4.37192 28.6149 4.37192 28.6149C4.59154 24.1859 5.81774 20.1688 8.05054 16.5633C10.2833 12.9579 13.2299 10.1303 16.8902 8.08057C20.5505 6.03079 24.5402 5.00591 28.8594 5.00591C35.1552 5.00591 40.5724 7.04653 45.1112 11.1278C49.65 15.209 52.2671 20.3609 52.9626 26.5834C52.9992 26.8397 53.0358 27.2606 53.0724 27.8463C53.109 28.4319 53.1456 29.0725 53.1822 29.7679C52.8162 29.6947 52.4684 29.6581 52.139 29.6581H47.4721C46.1544 29.6581 45.0472 30.1157 44.1504 31.0307C43.2536 31.9458 42.8052 33.0439 42.8052 34.325V46.0746C42.8052 46.9165 43.0248 47.7035 43.4641 48.4355C43.9033 49.1676 44.5073 49.7349 45.2759 50.1376L33.9656 54.5848V54.3103C33.9656 53.9809 33.8923 53.6789 33.7459 53.4044C33.5995 53.1299 33.3891 52.9194 33.1145 52.773C32.84 52.6266 32.538 52.5534 32.2086 52.5534H26.9378C26.4619 52.5534 26.0501 52.7181 25.7024 53.0475C25.3547 53.3769 25.1808 53.7979 25.1808 54.3103V56.0673C25.1808 56.5431 25.3547 56.9549 25.7024 57.3026C26.0501 57.6504 26.4619 57.8242 26.9378 57.8242H32.2086H32.2635L35.3931 57.7693L53.5116 50.6866C53.5848 50.65 53.658 50.6134 53.7312 50.5768C53.8045 50.5402 53.8685 50.4944 53.9234 50.4395C53.9783 50.3846 54.0424 50.3206 54.1156 50.2474C54.9208 49.8813 55.5706 49.3231 56.0647 48.5728C56.5588 47.8224 56.8059 46.9897 56.8059 46.0746V34.325C56.8059 34.0688 56.7693 33.7943 56.6961 33.5014C56.7693 33.3184 56.8059 33.1537 56.8059 33.0073ZM5.2504 33.172H9.9722C10.1552 33.172 10.3108 33.1995 10.4389 33.2544C10.567 33.3093 10.686 33.3916 10.7958 33.5014C10.9056 33.6112 10.9879 33.7394 11.0428 33.8858C11.0977 34.0322 11.1252 34.1786 11.1252 34.325V46.1295C11.1252 46.4223 11.0154 46.6877 10.7958 46.9256C10.5762 47.1636 10.3016 47.2825 9.9722 47.2825H5.2504C4.92097 47.2825 4.64644 47.1636 4.42683 46.9256C4.20721 46.6877 4.0974 46.4223 4.0974 46.1295V34.325C4.0974 34.1786 4.12485 34.0322 4.17975 33.8858C4.23466 33.7394 4.31702 33.6112 4.42683 33.5014C4.53663 33.3916 4.66475 33.3093 4.81116 33.2544C4.95757 33.1995 5.10398 33.172 5.2504 33.172ZM46.3191 34.325C46.3191 34.2152 46.3374 34.0962 46.374 33.9681C46.4106 33.84 46.4655 33.7302 46.5387 33.6387C46.6119 33.5472 46.6943 33.4648 46.7858 33.3916C46.8773 33.3184 46.978 33.2635 47.0878 33.2269C47.1976 33.1903 47.3257 33.172 47.4721 33.172H52.139C52.3586 33.172 52.5508 33.2269 52.7155 33.3367C52.8802 33.4465 53.0175 33.5838 53.1273 33.7485C53.2371 33.9132 53.292 34.1054 53.292 34.325V46.0746C53.292 46.2576 53.2371 46.4406 53.1273 46.6237C53.0175 46.8067 52.8802 46.9531 52.7155 47.0629C52.5508 47.1727 52.3586 47.2276 52.139 47.2276H47.4721C47.1427 47.2276 46.8682 47.1087 46.6485 46.8707C46.4289 46.6328 46.3191 46.3674 46.3191 46.0746V34.325Z" fill="#1DA678"/>
</g>
<defs>
<clipPath id="clip0_16_587">
<rect width="56.6348" height="57.8146" fill="white" transform="matrix(1 0 0 -1 0.377441 58.2085)"/>
</clipPath>
</defs>
</svg>
