<svg width="57" height="59" viewBox="0 0 57 59" fill="none" xmlns="http://www.w3.org/2000/svg">
<g clip-path="url(#clip0_16_581)">
<path d="M51.3783 11.2105H5.69761C4.74593 11.2105 3.86745 11.4484 3.06218 11.9243C2.25691 12.4001 1.61636 13.0406 1.14052 13.8459C0.664678 14.6512 0.426758 15.5297 0.426758 16.4813V42.8356C0.426758 44.2997 0.939202 45.5442 1.96409 46.5691C2.98898 47.594 4.23348 48.1064 5.69761 48.1064H51.3783C52.8424 48.1064 54.087 47.594 55.1118 46.5691C56.1367 45.5442 56.6492 44.2997 56.6492 42.8356V16.4813C56.6492 15.5297 56.4113 14.6512 55.9354 13.8459C55.4596 13.0406 54.819 12.4001 54.0137 11.9243C53.2085 11.4484 52.33 11.2105 51.3783 11.2105ZM5.69761 14.7244H51.3783C51.8542 14.7244 52.2659 14.8983 52.6137 15.246C52.9614 15.5937 53.1353 16.0055 53.1353 16.4813V19.9952H3.94066V16.4813C3.94066 16.0055 4.11452 15.5937 4.46225 15.246C4.80998 14.8983 5.22177 14.7244 5.69761 14.7244ZM51.3783 44.5925H5.69761C5.22177 44.5925 4.80998 44.4187 4.46225 44.071C4.11452 43.7232 3.94066 43.3114 3.94066 42.8356V27.023H53.1353V42.8356C53.1353 43.3114 52.9614 43.7232 52.6137 44.071C52.2659 44.4187 51.8542 44.5925 51.3783 44.5925Z" fill="#1DA678"/>
</g>
<defs>
<clipPath id="clip0_16_581">
<rect width="56.6348" height="57.8146" fill="white" transform="matrix(1 0 0 -1 0.220215 58.2085)"/>
</clipPath>
</defs>
</svg>
