<svg width="34" height="34" viewBox="0 0 34 34" fill="none" xmlns="http://www.w3.org/2000/svg">
<rect x="0.982422" y="0.492615" width="32.9819" height="32.9819" rx="16.4909" fill="#06685F"/>
<g clip-path="url(#clip0_295_934)">
<path d="M25.3321 24.1983C25.5898 24.1983 25.7186 24.3272 25.7186 24.5848V25.229H11.2891V24.5848C11.2891 24.3272 11.4179 24.1983 11.6756 24.1983H12.3197V9.51108C12.3197 9.29636 12.3949 9.11384 12.5452 8.96353C12.6955 8.81322 12.878 8.73807 13.0928 8.73807H23.9149C24.1297 8.73807 24.3122 8.81322 24.4625 8.96353C24.6128 9.11384 24.6879 9.29636 24.6879 9.51108V24.1983H25.3321ZM15.4118 11.1859V12.4743C15.4118 12.732 15.5406 12.8608 15.7983 12.8608H17.0867C17.3443 12.8608 17.4732 12.732 17.4732 12.4743V11.1859C17.4732 10.9283 17.3443 10.7994 17.0867 10.7994H15.7983C15.5406 10.7994 15.4118 10.9283 15.4118 11.1859ZM15.4118 14.278V15.5663C15.4118 15.824 15.5406 15.9529 15.7983 15.9529H17.0867C17.3443 15.9529 17.4732 15.824 17.4732 15.5663V14.278C17.4732 14.0203 17.3443 13.8915 17.0867 13.8915H15.7983C15.5406 13.8915 15.4118 14.0203 15.4118 14.278ZM17.0867 19.0449C17.3443 19.0449 17.4732 18.9161 17.4732 18.6584V17.37C17.4732 17.1124 17.3443 16.9835 17.0867 16.9835H15.7983C15.5406 16.9835 15.4118 17.1124 15.4118 17.37V18.6584C15.4118 18.9161 15.5406 19.0449 15.7983 19.0449H17.0867ZM19.5345 24.1983V21.4928C19.5345 21.2351 19.4057 21.1063 19.148 21.1063H17.8597C17.602 21.1063 17.4732 21.2351 17.4732 21.4928V24.1983H19.5345ZM21.5959 18.6584V17.37C21.5959 17.1124 21.4671 16.9835 21.2094 16.9835H19.921C19.6634 16.9835 19.5345 17.1124 19.5345 17.37V18.6584C19.5345 18.9161 19.6634 19.0449 19.921 19.0449H21.2094C21.4671 19.0449 21.5959 18.9161 21.5959 18.6584ZM21.5959 15.5663V14.278C21.5959 14.0203 21.4671 13.8915 21.2094 13.8915H19.921C19.6634 13.8915 19.5345 14.0203 19.5345 14.278V15.5663C19.5345 15.824 19.6634 15.9529 19.921 15.9529H21.2094C21.4671 15.9529 21.5959 15.824 21.5959 15.5663ZM21.5959 12.4743V11.1859C21.5959 10.9283 21.4671 10.7994 21.2094 10.7994H19.921C19.6634 10.7994 19.5345 10.9283 19.5345 11.1859V12.4743C19.5345 12.732 19.6634 12.8608 19.921 12.8608H21.2094C21.4671 12.8608 21.5959 12.732 21.5959 12.4743Z" fill="white"/>
</g>
<defs>
<clipPath id="clip0_295_934">
<rect width="14.4296" height="16.4909" fill="white" transform="matrix(1 0 0 -1 11.2891 25.229)"/>
</clipPath>
</defs>
</svg>
