<svg width="34" height="34" viewBox="0 0 34 34" fill="none" xmlns="http://www.w3.org/2000/svg">
<rect x="0.982422" y="0.380753" width="32.9819" height="32.9819" rx="16.4909" fill="#06685F"/>
<g clip-path="url(#clip0_295_907)">
<path d="M19.0194 10.6876C19.4489 10.6876 19.8139 10.8379 20.1145 11.1385C20.4152 11.4391 20.5655 11.8042 20.5655 12.2336V21.5098C20.5655 21.9392 20.4152 22.3042 20.1145 22.6049C19.8139 22.9055 19.4489 23.0558 19.0194 23.0558H9.74329C9.31384 23.0558 8.94881 22.9055 8.64819 22.6049C8.34757 22.3042 8.19727 21.9392 8.19727 21.5098V12.2336C8.19727 11.8042 8.34757 11.4391 8.64819 11.1385C8.94881 10.8379 9.31384 10.6876 9.74329 10.6876H19.0194ZM25.1391 11.9115C25.4827 11.6753 25.837 11.6485 26.202 11.831C26.567 12.0135 26.7496 12.3195 26.7496 12.749V20.9944C26.7496 21.4239 26.5617 21.7299 26.1859 21.9124C25.8101 22.0949 25.4612 22.068 25.1391 21.8318L21.5961 19.4162V14.3272L25.1391 11.9115Z" fill="white"/>
</g>
<defs>
<clipPath id="clip0_295_907">
<rect width="18.5523" height="16.4909" fill="white" transform="matrix(1 0 0 -1 8.19727 25.1172)"/>
</clipPath>
</defs>
</svg>
